<?xml version="1.0" standalone="no"?>
<!DOCTYPE svg PUBLIC "-//W3C//DTD SVG 20010904//EN"
 "http://www.w3.org/TR/2001/REC-SVG-20010904/DTD/svg10.dtd">
<svg version="1.0" xmlns="http://www.w3.org/2000/svg"
 width="3136.000000pt" height="1344.000000pt" viewBox="0 0 3136.000000 1344.000000"
 preserveAspectRatio="xMidYMid meet">

<g transform="translate(0.000000,1344.000000) scale(0.100000,-0.100000)"
fill="#000000" stroke="none">
<path d="M0 6720 l0 -6720 15680 0 15680 0 0 6720 0 6720 -15680 0 -15680 0 0
-6720z m15680 2987 l0 -313 -30 -47 c-16 -26 -30 -50 -30 -52 0 -2 -46 -78
-103 -167 -57 -90 -152 -242 -211 -338 -60 -96 -123 -197 -141 -225 -43 -67
-227 -364 -241 -390 -6 -11 -29 -48 -50 -82 -134 -212 -230 -363 -250 -393
-32 -48 -55 -106 -46 -115 4 -5 2 -5 -5 -1 -8 4 -35 -29 -79 -96 -36 -57 -79
-122 -95 -145 -16 -24 -26 -43 -23 -43 4 0 34 15 68 34 33 18 104 57 156 86
52 28 100 55 105 59 6 5 54 31 107 59 53 29 152 83 220 121 68 38 155 86 193
106 39 21 86 48 105 60 19 12 87 50 150 85 63 34 134 73 158 87 l42 24 0 -199
0 -199 -97 -53 c-126 -69 -214 -117 -393 -217 -80 -44 -230 -128 -335 -185
-313 -174 -609 -339 -632 -354 -12 -8 -44 -26 -70 -40 -186 -102 -151 -65
-324 -341 -86 -136 -194 -309 -239 -383 -169 -274 -214 -346 -234 -372 -27
-38 -17 -42 35 -15 285 154 448 243 469 257 14 10 59 35 100 57 41 22 122 67
180 100 187 107 403 229 495 278 50 27 106 58 125 70 32 19 233 131 384 213
33 19 68 40 77 48 8 8 19 14 23 14 4 0 35 16 69 36 34 20 100 57 147 82 47 25
87 48 90 51 8 10 109 61 120 61 6 0 10 -70 10 -193 l0 -193 -32 -17 c-18 -9
-62 -33 -98 -53 -36 -20 -94 -52 -130 -71 -36 -20 -69 -39 -75 -43 -10 -8 -35
-22 -140 -80 -33 -18 -98 -54 -145 -80 -47 -26 -123 -69 -170 -94 -47 -26 -92
-51 -100 -56 -8 -5 -98 -55 -200 -111 -102 -56 -214 -118 -250 -139 -36 -21
-89 -49 -117 -64 -29 -14 -53 -32 -53 -38 0 -6 -3 -9 -6 -6 -6 6 -185 -84
-214 -107 -14 -11 -76 -46 -175 -100 -22 -12 -92 -51 -155 -87 -63 -35 -140
-77 -170 -92 -30 -15 -62 -32 -70 -37 -8 -5 -49 -28 -90 -50 -41 -23 -114 -63
-163 -89 -115 -64 -177 -84 -231 -76 -85 13 -166 114 -166 207 0 45 34 110
178 339 22 36 62 101 88 145 26 44 72 118 103 165 31 47 81 126 110 175 29 50
88 146 131 215 43 69 98 157 121 195 54 89 206 332 372 595 185 291 299 473
381 605 24 39 104 166 177 284 74 118 159 254 189 303 30 48 93 149 140 223
47 75 105 169 130 209 25 41 67 110 94 153 54 85 163 260 322 515 133 214 216
346 275 438 27 41 66 103 86 138 21 34 41 62 45 62 4 0 8 -141 8 -313z m376
240 c21 -34 70 -111 109 -172 80 -123 86 -132 320 -510 92 -148 191 -306 220
-350 28 -44 58 -91 65 -104 7 -14 17 -30 22 -35 12 -15 218 -348 218 -353 0
-3 13 -23 28 -46 35 -51 59 -89 147 -232 38 -60 84 -135 103 -165 80 -127 100
-158 132 -210 18 -30 51 -84 72 -118 22 -35 42 -70 45 -78 4 -12 -27 -14 -196
-14 l-200 0 -15 28 c-18 35 -277 449 -327 524 -22 31 -39 59 -39 62 0 3 -37
63 -83 133 -117 180 -155 240 -242 386 -42 70 -80 125 -84 123 -12 -8 -14
-312 -1 -335 6 -12 7 -21 2 -21 -4 0 -8 -385 -8 -856 l1 -856 255 -143 c140
-78 302 -169 360 -202 58 -33 130 -74 160 -90 112 -61 749 -413 989 -547 85
-47 158 -86 162 -86 4 0 9 5 11 11 2 7 9 5 17 -5 12 -14 12 -16 -3 -10 -28 11
-17 -3 20 -25 l35 -21 -26 43 c-14 23 -30 41 -36 39 -6 -1 -8 2 -4 8 4 6 -22
57 -56 113 -102 165 -157 248 -162 240 -2 -5 -2 -2 0 5 1 8 -34 73 -80 145
-46 73 -117 187 -158 255 -41 68 -102 169 -136 225 -34 56 -62 108 -63 115 0
9 45 12 193 12 l192 0 21 -38 c26 -46 414 -675 514 -832 5 -8 37 -60 71 -115
34 -55 77 -122 94 -150 70 -110 181 -293 207 -344 31 -61 37 -130 15 -184 -22
-52 -88 -104 -142 -112 -72 -11 -107 -1 -228 66 -62 34 -131 72 -153 84 -23
12 -68 38 -100 57 -33 20 -102 58 -154 85 -52 28 -133 72 -180 98 -118 67
-192 108 -365 205 -82 45 -199 111 -260 145 -60 34 -229 129 -375 210 -146 81
-339 189 -430 240 -321 180 -531 295 -540 295 -6 0 -10 639 -10 1741 0 1085 4
1738 9 1734 6 -3 27 -33 47 -68z m474 -1438 c0 -6 -4 -7 -10 -4 -5 3 -10 11
-10 16 0 6 5 7 10 4 6 -3 10 -11 10 -16z m3302 -4113 c120 -23 274 -104 328
-173 l22 -28 -82 -78 -83 -79 -36 38 c-48 50 -97 79 -173 105 -52 18 -79 20
-159 17 -81 -4 -107 -10 -162 -36 -207 -97 -303 -335 -226 -560 47 -136 130
-220 268 -268 155 -55 333 -17 458 99 l43 39 76 -76 c41 -42 74 -80 72 -85 -9
-24 -142 -125 -203 -156 -131 -64 -333 -81 -490 -40 -127 33 -274 127 -351
223 -106 135 -150 276 -141 451 11 218 103 387 273 502 122 82 238 116 401
118 50 1 124 -5 165 -13z m-8762 -106 l0 -100 -347 0 -348 0 2 -162 2 -163
303 0 303 0 3 -97 3 -98 -308 0 -308 0 2 -172 2 -173 361 -3 360 -2 0 -100 c0
-55 -3 -101 -7 -101 -24 -5 -912 -7 -933 -3 l-25 5 0 635 0 634 468 0 467 0 0
-100z m530 -435 l0 -535 333 0 332 0 -1 -93 c-1 -50 -2 -96 -3 -102 -1 -8
-766 -14 -873 -7 l-28 2 0 635 0 635 120 0 120 0 0 -535z m1780 435 l0 -100
-345 0 -346 0 2 -160 1 -160 306 -2 307 -3 0 -95 0 -95 -306 -3 -307 -2 -1
-175 -1 -175 360 0 360 0 0 -99 0 -99 -27 -3 c-16 -3 -230 -4 -478 -4 l-450 0
-2 638 -3 637 465 0 465 0 0 -100z m399 22 c18 -42 76 -176 128 -297 162 -381
258 -595 264 -595 4 0 10 12 14 28 8 33 317 755 370 865 l38 77 118 0 c66 0
119 -2 119 -5 0 -6 -168 -395 -290 -670 -87 -197 -165 -375 -230 -527 l-34
-78 -117 0 -117 0 -15 33 c-9 17 -31 70 -50 117 -31 74 -98 228 -142 325 -54
120 -326 761 -331 780 l-6 25 123 0 124 0 34 -78z m1846 -24 c55 -120 152
-331 347 -763 77 -170 151 -331 164 -356 l23 -47 -22 -6 c-31 -8 -198 -6 -221
3 -11 4 -41 59 -80 147 l-62 139 -316 3 c-245 2 -318 -1 -326 -10 -5 -7 -31
-62 -56 -123 -63 -149 -69 -160 -89 -159 -9 1 -67 2 -128 3 -88 1 -109 4 -102
14 6 6 24 46 41 87 17 41 44 102 60 135 36 75 49 103 110 245 28 63 66 149 85
190 47 101 88 191 97 215 4 11 40 92 79 180 40 88 76 170 81 183 9 21 14 22
138 22 l129 0 48 -102z m1555 2 l0 -100 -210 0 -210 0 0 -534 c0 -452 -2 -535
-14 -539 -8 -3 -63 -5 -123 -4 l-108 2 -2 535 -3 535 -207 5 -208 5 -3 98 -3
97 546 0 545 0 0 -100z m1110 0 l0 -100 -345 0 -345 0 2 -160 3 -161 300 -2
300 -2 3 -97 3 -98 -306 0 -305 0 0 -175 0 -175 363 0 363 0 0 -97 -1 -97 -29
-7 c-34 -9 -898 -12 -921 -3 -14 6 -15 78 -15 634 0 345 3 630 7 634 3 3 213
6 465 6 l458 0 0 -100z m2232 33 c17 -38 43 -97 58 -133 15 -36 63 -148 107
-250 79 -181 195 -452 214 -498 9 -23 29 -22 29 1 0 7 21 59 46 117 25 58 72
166 104 240 98 228 196 452 230 523 l32 67 120 0 c92 0 119 -3 115 -12 -3 -7
-26 -60 -50 -118 -24 -58 -66 -152 -92 -210 -26 -58 -72 -163 -102 -235 -30
-71 -58 -134 -62 -140 -5 -5 -23 -46 -41 -90 -17 -44 -65 -154 -105 -245 -41
-91 -78 -177 -84 -192 -9 -23 -17 -27 -63 -32 -29 -3 -82 -5 -118 -3 -74 2
-64 -9 -131 147 -36 84 -68 156 -148 332 -55 122 -171 390 -171 395 0 3 -25
62 -56 132 -59 130 -114 261 -114 267 0 2 57 4 126 4 l125 0 31 -67z m9752
-2794 c21 -66 74 -154 131 -218 61 -67 236 -171 289 -171 9 0 16 -8 16 -17 0
-13 -17 -23 -61 -37 -66 -21 -154 -74 -218 -131 -67 -61 -171 -236 -171 -289
0 -9 -8 -16 -17 -16 -13 0 -23 17 -37 61 -21 66 -74 154 -131 218 -61 67 -236
171 -289 171 -9 0 -16 8 -16 18 0 12 17 22 61 36 66 21 154 74 218 131 67 61
171 236 171 289 0 9 8 16 18 16 12 0 22 -17 36 -61z"/>
<path d="M15338 3892 c-59 -141 -108 -264 -110 -272 -3 -13 28 -15 224 -15
126 0 228 3 228 8 0 4 -39 96 -86 205 -47 108 -97 227 -112 264 -15 37 -29 68
-32 68 -3 0 -53 -116 -112 -258z"/>
</g>
</svg>
